<?xml version="1.0" encoding="utf-8"?>
<!-- Generator: Adobe Illustrator 25.4.1, SVG Export Plug-In . SVG Version: 6.00 Build 0)  -->
<svg version="1.1" id="Layer_1" xmlns="http://www.w3.org/2000/svg" xmlns:xlink="http://www.w3.org/1999/xlink" x="0px" y="0px"
	 viewBox="0 0 800 800" style="enable-background:new 0 0 800 800;" xml:space="preserve">
<style type="text/css">
	.st0{fill:none;stroke:#000000;stroke-width:51;stroke-linecap:round;stroke-linejoin:round;stroke-miterlimit:133.3333;}
</style>
<g id="Interface__x2F__Credit_x5F_Card_x5F_01">
	<path id="Vector" class="st0" d="M100,366.7v160c0,37.3,0,56,7.3,70.3c6.4,12.5,16.6,22.8,29.1,29.1c14.2,7.3,32.9,7.3,70.2,7.3
		h386.9c37.3,0,55.9,0,70.1-7.3c12.5-6.4,22.8-16.6,29.2-29.1c7.3-14.2,7.3-32.9,7.3-70.1V366.7 M100,366.7V300 M100,366.7h600
		 M100,300v-26.7c0-37.3,0-56,7.3-70.3c6.4-12.5,16.6-22.7,29.1-29.1c14.3-7.3,32.9-7.3,70.3-7.3h386.7c37.3,0,56,0,70.2,7.3
		c12.5,6.4,22.8,16.6,29.2,29.1c7.3,14.2,7.3,32.9,7.3,70.2V300 M700,300 M100,300 M233.3,500h133.3 M700,366.7V300"/>
</g>
</svg>
