<?xml version="1.0" encoding="utf-8"?>
<!-- Generator: Adobe Illustrator 25.4.1, SVG Export Plug-In . SVG Version: 6.00 Build 0)  -->
<svg version="1.1" id="Layer_1" xmlns="http://www.w3.org/2000/svg" xmlns:xlink="http://www.w3.org/1999/xlink" x="0px" y="0px"
	 viewBox="0 0 800 800" style="enable-background:new 0 0 800 800;" xml:space="preserve">
<style type="text/css">
	.st0{fill:none;}
</style>
<g>
	<path class="st0" d="M503.7,127.4c-2.8,2.3-5.7,4.9-8.7,7.8l-24.8,24.8l-24.8-24.8c-2.9-2.9-5.8-5.5-8.7-7.8
		c-19.8-15.9-36.6-17-37.5-17c-9.1,0.1-17.7,3.8-24,10.2c-6.7,6.7-10.3,15.5-10.3,24.9s3.7,18.2,10.3,24.8l95,99.8l94.4-99.2
		c7.3-7.3,10.9-16.1,10.9-25.4s-3.7-18.2-10.3-24.8c-6.5-6.6-15.4-10.2-24.6-10.2c0,0,0,0,0,0C537.9,110.7,522.2,112.5,503.7,127.4z
		"/>
	<path class="st0" d="M635.7,437c-3.5-1.2-7.2-1.8-10.9-1.8c-7.9,0-15.8,2.6-22.1,7.6L457.2,559.3c-1.2,1-2.5,1.9-3.9,2.7l-0.1,0
		c0,0,0.2,0-0.1,0l-0.1,0l-0.1,0h0l-0.1,0h0l-0.1,0l-0.1,0l-0.1,0l-0.1,0l-0.1,0.1c0,0,0,0-0.1,0l-0.1,0l-0.1,0l-0.1,0l-0.1,0
		l-0.1,0l-0.1,0h0c0,0,0.3,0-0.1,0c0,0,0.1,0.1,0.1,0.1c0,0-0.1,0-0.2,0l0,0h-0.1l-0.1,0h-0.1l-0.1,0.1l-0.1,0
		c-4.8,2.5-10.1,3.8-15.5,3.9H224.5v-70.2h153.8l-15.7-31.4c-12-23.9-36-38.8-62.8-38.8H119.2v0v210.6h337.7
		c20.4,0,39.9-8.8,53.4-24.1l145.1-169.3L635.7,437z"/>
	<path d="M336.1,260.9l0.1,0.1l0.1,0.1L456.1,387c3.7,3.8,8.7,5.9,14,5.9c5.1,0,9.9-1.9,13.5-5.5c0.2-0.2,0.3-0.3,0.5-0.5
		l119.2-125.2l0.1-0.1l0.1-0.1c16.9-16.9,26.2-39.3,26.2-63.3c0-23.9-9.3-46.4-26.2-63.3c-16.6-16.7-39.5-26.2-63-26.2l-0.2,0h-0.1
		h-0.5c-5.1,0.1-30.8,1.5-60.8,22l-8.9,6.1l-8.9-6.1c-29.9-20.3-55.6-21.9-60.5-22l-0.1,0l-0.1,0l-0.8,0c-23.9,0-46.3,9.3-63.1,26.2
		c-16.9,16.9-26.2,39.4-26.2,63.3C310.5,222.1,319.6,244.3,336.1,260.9z M364,162.2c9.3-9.5,21.8-14.8,35.1-14.9l0.4,0l0.4,0
		c2.3,0.1,23,1.4,46.7,20.5c3.2,2.6,6.5,5.5,9.9,8.9l0,0l0,0l13.6,13.6l13.6-13.6l0,0l0,0c3.4-3.4,6.7-6.3,9.9-8.9
		c21.5-17.3,40.3-20,45.6-20.4l0.6,0h0.6c13.4,0,26.4,5.4,35.8,14.9c9.6,9.6,14.9,22.4,14.9,35.9c0,13.7-5.3,26.3-15.4,36.5
		l-94.3,99l-11.4,12l-11.4-12L363.9,234c-9.5-9.6-14.8-22.3-14.8-35.8C349.1,184.6,354.4,171.8,364,162.2z"/>
	<path d="M551.5,647.8l179.1-208.9c3.4-3.9,5-8.9,4.6-14.1c-0.4-5.1-2.8-9.8-6.7-13.2c-1.9-1.6-4.1-2.9-6.5-3.7l-69-23
		c-9.1-2.9-18.5-4.4-28.1-4.4c-20.3,0-40.3,6.9-56.3,19.5l-111.7,89.4l-15.3,12.2l-8.7-17.5l-21.7-43.3
		c-10.3-20.7-26.1-38.1-45.7-50.2c-19.6-12.2-42.2-18.6-65.3-18.6l-0.4,0l-180.7,0c-30,0-54.4,24.4-54.4,54.4v210.6
		c0,30,24.4,54.4,54.4,54.4h337.7h0.1C493.3,691.3,527.8,675.5,551.5,647.8z M399.6,546.9h44.8l0.2-0.3l0.8,0l1.9-1.9l1.6-1.3
		l143.8-112.8l0,0l0,0c9-7.1,20.3-11,31.9-11c5.5,0,10.8,0.9,15.9,2.6l19.5,6.5l22.3,7.4l-15.3,17.8L522.2,623.1l-0.1,0.1l-0.1,0.1
		c-16.5,18.7-40.2,29.5-65.2,29.5H119.2h-15.8v-15.8V426.3v-15.8h15.8l180.6,0c32.8,0,62.3,18.2,76.9,47.5l15.7,31.4l11.4,22.9
		h-25.5h-138v33.3"/>
</g>
</svg>
