<?xml version="1.0" encoding="utf-8"?>
<!-- Generator: Adobe Illustrator 25.4.1, SVG Export Plug-In . SVG Version: 6.00 Build 0)  -->
<svg version="1.1" id="Layer_1" xmlns="http://www.w3.org/2000/svg" xmlns:xlink="http://www.w3.org/1999/xlink" x="0px" y="0px"
	 viewBox="0 0 800 800" style="enable-background:new 0 0 800 800;" xml:space="preserve">
<style type="text/css">
	.st0{fill:none;}
</style>
<g>
	<path class="st0" d="M543.6,142.9c-85.9,0-142.9,33.4-142.9,55.5c0,22.1,57,55.5,142.9,55.5s142.9-33.4,142.9-55.5
		C686.5,176.2,629.5,142.9,543.6,142.9z"/>
	<path class="st0" d="M257.9,342.9c-85.9,0-142.9,33.4-142.9,55.5c0,22.1,57,55.5,142.9,55.5c85.9,0,142.9-33.4,142.9-55.5
		C400.8,376.2,343.8,342.9,257.9,342.9z"/>
	<path class="st0" d="M257.9,554.6c85.9,0,142.9-33.4,142.9-55.5c0-4.9-3.3-10.5-8.7-16.1c-35,17.4-81.5,27.8-134.1,27.8
		c-52.7,0-99.2-10.4-134.2-27.9c-5.4,5.6-8.7,11.2-8.7,16.1l0,0C115.1,521.2,172,554.6,257.9,554.6z"/>
	<path class="st0" d="M400.8,600c0-4.9-3.2-10.5-8.7-16.1c-35,17.4-81.5,27.9-134.2,27.9c-52.7,0-99.2-10.4-134.2-27.9
		c-5.4,5.6-8.7,11.2-8.7,16.1c0,22.1,57,55.5,142.9,55.5v0C343.8,655.5,400.8,622.1,400.8,600z"/>
	<path d="M701.6,621.8c0-0.1,0-0.2,0-0.2c0-0.4-0.1-0.8-0.1-1.2l-0.4-12.3h0.4V232H701l0.5-12.5c0-0.7,0.1-1.2,0.1-1.6
		c-0.2-26.4-18.3-51-51.1-69.5c-35.1-19.8-83.8-30.7-136.9-30.7s-101.7,10.9-136.9,30.7c-32.8,18.5-50.9,43.1-51.1,69.5
		c0,0.4,0.1,1,0.1,1.7l0.3,12.3h-0.5v61.7h33.1v-15.6l17.9,10.1c35.2,19.8,83.8,30.7,137,30.7c48.6,0,94.4-9.4,128.8-26.6l7.9-3.9
		l6.1,6.3c8,8.3,12.1,16.5,12.1,24.4c0,16.8-16.9,33.9-46.3,47c-29.7,13.2-68.3,20.5-108.5,20.5h-45.1v33.1h45.1
		c48.7,0,94.4-9.4,128.8-26.6l7.9-3.9l6.1,6.3c8,8.3,12.1,16.5,12.1,24.4c0,16.8-16.9,33.9-46.3,47c-29.7,13.2-68.2,20.5-108.5,20.5
		l-20.2,0.1l-0.9,0c-6.3,0.1-12.2,0.1-18.2,0.1c-1.9,0-3.7,0-5.5,0l-0.8,33.1c2.2,0,4.5,0,6.8,0c5.4,0,11.3,0,18.8-0.1l19.8-0.1l0,0
		h0c48.7,0,94.5-9.5,128.9-26.6l7.9-3.9l6.1,6.3c8,8.2,12,16.5,12,24.4c0,16.8-16.9,33.9-46.3,47c-29.7,13.2-68.3,20.5-108.5,20.5
		h-45.1v33.1h45.1c48.7,0,94.4-9.5,128.9-26.6l7.9-3.9l6.1,6.3c8,8.2,12,16.5,12,24.5c0,16.8-16.9,33.9-46.3,47
		c-29.7,13.2-68.3,20.5-108.5,20.5h-45.1v33.1h45.1c53.1,0,101.7-10.9,136.9-30.7C683.4,673.1,701.6,648.3,701.6,621.8z
		 M622.2,265.3c-29.7,13.2-68.3,20.5-108.5,20.5s-78.8-7.3-108.5-20.5c-29.5-13.1-46.3-30.2-46.3-47c0-16.8,16.9-33.9,46.3-47
		c29.7-13.2,68.3-20.5,108.5-20.5c40.3,0,78.8,7.3,108.5,20.5c29.5,13.1,46.3,30.2,46.3,47C668.5,235.1,651.6,252.2,622.2,265.3z"/>
	<path d="M445.9,600V412h-0.5l0.3-12.3c0-0.7,0.1-1.3,0.1-1.7c-0.2-26.4-18.3-51.1-51.1-69.5c-35.1-19.8-83.8-30.7-136.9-30.7
		c-53.1,0-101.7,10.9-136.9,30.7c-32.8,18.5-50.9,43.1-51.1,69.5c0,0.4,0.1,1,0.1,1.7l0.3,12.3h-0.5v188c0,26.5,18.2,51.4,51.1,69.9
		c35.1,19.8,83.8,30.7,136.9,30.7s101.7-10.9,136.9-30.7C427.8,651.4,445.9,626.5,445.9,600z M366.4,647
		c-29.7,13.2-68.2,20.5-108.5,20.5v0c-40.3,0-78.8-7.3-108.5-20.5c-29.5-13.1-46.3-30.2-46.3-47c0-8,4.1-16.2,12.1-24.4l6.1-6.3
		l7.9,3.9c34.4,17.2,80.2,26.6,128.8,26.6c48.7,0,94.4-9.4,128.8-26.6l7.9-3.9l6.1,6.3c8,8.3,12.1,16.5,12.1,24.4
		C412.8,616.8,395.9,633.9,366.4,647z M366.4,546.1c-29.7,13.2-68.3,20.5-108.5,20.5c-40.3,0-78.8-7.3-108.5-20.5
		c-29.5-13.1-46.3-30.2-46.3-47l0,0c0-8,4.1-16.2,12-24.5l6.1-6.3l7.9,3.9c34.4,17.2,80.2,26.6,128.8,26.6
		c48.6,0,94.4-9.4,128.8-26.6l7.9-3.9l6.1,6.3c8,8.3,12.1,16.5,12.1,24.4C412.8,515.9,395.9,533,366.4,546.1z M366.4,445.3
		c-29.7,13.2-68.3,20.5-108.5,20.5s-78.8-7.3-108.5-20.5c-29.5-13.1-46.3-30.2-46.3-47c0-16.8,16.9-33.9,46.3-47
		c29.7-13.2,68.3-20.5,108.5-20.5c40.3,0,78.8,7.3,108.5,20.5c29.5,13.1,46.3,30.2,46.3,47C412.8,415.1,395.9,432.2,366.4,445.3z"/>
</g>
</svg>
